<svg width="24" height="24" viewBox="0 0 24 24" fill="none" xmlns="http://www.w3.org/2000/svg">
<g clip-path="url(#clip0_1_97)">
<path d="M17.5 1.91653C16.3739 1.93405 15.2724 2.24839 14.3068 2.82781C13.3411 3.40722 12.5453 4.2312 12 5.21653C11.4546 4.2312 10.6589 3.40722 9.69323 2.82781C8.72753 2.24839 7.62604 1.93405 6.49999 1.91653C4.70493 1.99453 3.01369 2.77979 1.79577 4.10077C0.577848 5.42175 -0.0677617 7.17106 -1.11917e-05 8.96653C-1.11917e-05 13.5135 4.78599 18.4795 8.79999 21.8465C9.69621 22.5997 10.8293 23.0126 12 23.0126C13.1706 23.0126 14.3038 22.5997 15.2 21.8465C19.214 18.4795 24 13.5135 24 8.96653C24.0677 7.17106 23.4221 5.42175 22.2042 4.10077C20.9863 2.77979 19.295 1.99453 17.5 1.91653ZM13.915 20.3165C13.379 20.7679 12.7007 21.0154 12 21.0154C11.2992 21.0154 10.621 20.7679 10.085 20.3165C4.94699 16.0055 1.99999 11.8695 1.99999 8.96653C1.93163 7.70125 2.36635 6.46026 3.20935 5.51423C4.05235 4.5682 5.23522 3.99388 6.49999 3.91653C7.76476 3.99388 8.94763 4.5682 9.79063 5.51423C10.6336 6.46026 11.0683 7.70125 11 8.96653C11 9.23175 11.1053 9.4861 11.2929 9.67364C11.4804 9.86118 11.7348 9.96653 12 9.96653C12.2652 9.96653 12.5196 9.86118 12.7071 9.67364C12.8946 9.4861 13 9.23175 13 8.96653C12.9316 7.70125 13.3664 6.46026 14.2094 5.51423C15.0523 4.5682 16.2352 3.99388 17.5 3.91653C18.7648 3.99388 19.9476 4.5682 20.7906 5.51423C21.6336 6.46026 22.0683 7.70125 22 8.96653C22 11.8695 19.053 16.0055 13.915 20.3125V20.3165Z" fill="#374957"/>
</g>
<defs>
<clipPath id="clip0_1_97">
<rect width="24" height="24" fill="white"/>
</clipPath>
</defs>
</svg>
