<svg width="21" height="20" viewBox="0 0 21 20" fill="none" xmlns="http://www.w3.org/2000/svg">
<path d="M7 2.5C4.58763 2.5 2.625 4.36917 2.625 6.66667V13.3333C2.625 15.6308 4.58763 17.5 7 17.5H14C16.4124 17.5 18.375 15.6308 18.375 13.3333V6.66667C18.375 4.36917 16.4124 2.5 14 2.5H7ZM7 4.16667H14C15.4473 4.16667 16.625 5.28833 16.625 6.66667V13.3333C16.625 14.7117 15.4473 15.8333 14 15.8333H7C5.55275 15.8333 4.375 14.7117 4.375 13.3333V6.66667C4.375 5.28833 5.55275 4.16667 7 4.16667ZM14.875 5C14.6429 5 14.4204 5.0878 14.2563 5.24408C14.0922 5.40036 14 5.61232 14 5.83333C14 6.05435 14.0922 6.26631 14.2563 6.42259C14.4204 6.57887 14.6429 6.66667 14.875 6.66667C15.1071 6.66667 15.3296 6.57887 15.4937 6.42259C15.6578 6.26631 15.75 6.05435 15.75 5.83333C15.75 5.61232 15.6578 5.40036 15.4937 5.24408C15.3296 5.0878 15.1071 5 14.875 5ZM10.5 5.83333C8.08763 5.83333 6.125 7.7025 6.125 10C6.125 12.2975 8.08763 14.1667 10.5 14.1667C12.9124 14.1667 14.875 12.2975 14.875 10C14.875 7.7025 12.9124 5.83333 10.5 5.83333ZM10.5 7.5C11.9473 7.5 13.125 8.62167 13.125 10C13.125 11.3783 11.9473 12.5 10.5 12.5C9.05275 12.5 7.875 11.3783 7.875 10C7.875 8.62167 9.05275 7.5 10.5 7.5Z" fill="black"/>
</svg>
