<svg width="198" height="55" viewBox="0 0 198 55" fill="none" xmlns="http://www.w3.org/2000/svg">
<g clip-path="url(#clip0_5_189)">
<path d="M60.4871 46.9998V32.2725H64.447V34.8421H64.6004C64.8689 33.9281 65.3195 33.2377 65.9523 32.7711C66.5852 32.2981 67.3139 32.0616 68.1384 32.0616C68.343 32.0616 68.5635 32.0744 68.8 32.0999C69.0365 32.1255 69.2443 32.1607 69.4232 32.2054V35.8297C69.2315 35.7722 68.9662 35.721 68.6274 35.6763C68.2886 35.6315 67.9786 35.6092 67.6974 35.6092C67.0965 35.6092 66.5596 35.7402 66.0866 36.0023C65.62 36.258 65.2492 36.6159 64.9744 37.0761C64.7059 37.5364 64.5717 38.0669 64.5717 38.6678V46.9998H60.4871ZM77.5611 47.2874C76.0462 47.2874 74.7422 46.9806 73.6492 46.367C72.5625 45.747 71.7252 44.8712 71.1371 43.7399C70.549 42.6021 70.255 41.2565 70.255 39.7033C70.255 38.1884 70.549 36.8588 71.1371 35.7146C71.7252 34.5705 72.5529 33.6788 73.6204 33.0396C74.6943 32.4004 75.9535 32.0808 77.3981 32.0808C78.3697 32.0808 79.2742 32.2374 80.1115 32.5506C80.9553 32.8574 81.6904 33.3208 82.3168 33.9409C82.9496 34.5609 83.4418 35.3407 83.7933 36.2803C84.1449 37.2136 84.3207 38.3066 84.3207 39.5595V40.6813H71.885V38.15H80.4759C80.4759 37.5619 80.348 37.041 80.0924 36.5872C79.8367 36.1333 79.4819 35.7786 79.0281 35.5229C78.5806 35.2608 78.0597 35.1298 77.4652 35.1298C76.8452 35.1298 76.2955 35.2736 75.8161 35.5612C75.3431 35.8425 74.9723 36.2228 74.7039 36.7022C74.4354 37.1752 74.298 37.7026 74.2916 38.2842V40.6909C74.2916 41.4195 74.4258 42.0492 74.6943 42.5797C74.9691 43.1102 75.3558 43.5193 75.8544 43.807C76.353 44.0946 76.9443 44.2384 77.6282 44.2384C78.0821 44.2384 78.4975 44.1745 78.8747 44.0467C79.2518 43.9188 79.5746 43.7271 79.8431 43.4714C80.1115 43.2157 80.3161 42.9025 80.4567 42.5318L84.2344 42.781C84.0426 43.6887 83.6495 44.4813 83.0551 45.1589C82.467 45.8301 81.7063 46.3542 80.7731 46.7313C79.8463 47.1021 78.7756 47.2874 77.5611 47.2874ZM99.2397 36.4721L95.5004 36.7022C95.4365 36.3826 95.299 36.095 95.0881 35.8393C94.8772 35.5772 94.5991 35.3695 94.2539 35.2161C93.9152 35.0563 93.5093 34.9764 93.0362 34.9764C92.4034 34.9764 91.8697 35.1106 91.435 35.3791C91.0004 35.6411 90.783 35.9927 90.783 36.4337C90.783 36.7853 90.9237 37.0825 91.2049 37.3254C91.4862 37.5683 91.9688 37.7633 92.6527 37.9103L95.3182 38.4472C96.75 38.7413 97.8175 39.2143 98.5206 39.8663C99.2237 40.5183 99.5753 41.3748 99.5753 42.4359C99.5753 43.4011 99.2909 44.248 98.722 44.9767C98.1595 45.7054 97.386 46.2743 96.4017 46.6834C95.4237 47.0861 94.2955 47.2874 93.0171 47.2874C91.0675 47.2874 89.5142 46.8815 88.3573 46.0698C87.2067 45.2516 86.5323 44.1394 86.3342 42.7331L90.3516 42.5222C90.473 43.1166 90.7671 43.5705 91.2337 43.8837C91.7003 44.1905 92.298 44.3439 93.0267 44.3439C93.7426 44.3439 94.3178 44.2065 94.7525 43.9316C95.1936 43.6504 95.4173 43.2892 95.4237 42.8482C95.4173 42.4774 95.2607 42.1738 94.9539 41.9373C94.647 41.6944 94.174 41.509 93.5348 41.3812L90.9844 40.873C89.5462 40.5854 88.4755 40.0868 87.7724 39.3773C87.0757 38.6678 86.7273 37.7633 86.7273 36.6639C86.7273 35.7178 86.983 34.9029 87.4943 34.2189C88.0121 33.535 88.7376 33.0076 89.6708 32.6369C90.6105 32.2661 91.7099 32.0808 92.9691 32.0808C94.8292 32.0808 96.293 32.4739 97.3605 33.2601C98.4343 34.0463 99.0607 35.117 99.2397 36.4721ZM109.981 32.2725V35.3407H101.112V32.2725H109.981ZM103.125 28.7441H107.21V42.4742C107.21 42.8514 107.267 43.1454 107.382 43.3563C107.497 43.5609 107.657 43.7047 107.862 43.7878C108.073 43.8709 108.316 43.9124 108.59 43.9124C108.782 43.9124 108.974 43.8965 109.166 43.8645C109.358 43.8261 109.505 43.7974 109.607 43.7782L110.249 46.8176C110.045 46.8815 109.757 46.9551 109.386 47.0382C109.016 47.1276 108.565 47.182 108.034 47.2011C107.05 47.2395 106.187 47.1085 105.446 46.808C104.711 46.5076 104.138 46.041 103.729 45.4082C103.32 44.7754 103.119 43.9764 103.125 43.0112V28.7441ZM116.841 47.2779C115.901 47.2779 115.064 47.1149 114.329 46.7889C113.594 46.4565 113.012 45.9675 112.584 45.3219C112.162 44.6699 111.951 43.8581 111.951 42.8865C111.951 42.0683 112.101 41.3812 112.402 40.8251C112.702 40.269 113.111 39.8215 113.629 39.4828C114.147 39.144 114.735 38.8883 115.393 38.7157C116.058 38.5431 116.755 38.4217 117.483 38.3514C118.34 38.2619 119.03 38.1788 119.554 38.1021C120.079 38.019 120.459 37.8975 120.695 37.7377C120.932 37.5779 121.05 37.3414 121.05 37.0282V36.9707C121.05 36.3634 120.858 35.8936 120.475 35.5612C120.098 35.2288 119.561 35.0627 118.864 35.0627C118.129 35.0627 117.544 35.2257 117.109 35.5516C116.675 35.8712 116.387 36.2739 116.247 36.7597L112.469 36.4529C112.661 35.558 113.038 34.7846 113.6 34.1326C114.163 33.4742 114.888 32.9693 115.777 32.6177C116.672 32.2597 117.707 32.0808 118.883 32.0808C119.701 32.0808 120.484 32.1766 121.232 32.3684C121.987 32.5602 122.655 32.8574 123.236 33.2601C123.824 33.6628 124.288 34.1806 124.627 34.8134C124.965 35.4398 125.135 36.1909 125.135 37.0666V46.9998H121.261V44.9575H121.146C120.91 45.4178 120.593 45.8237 120.197 46.1752C119.801 46.5204 119.324 46.7921 118.768 46.9902C118.212 47.182 117.57 47.2779 116.841 47.2779ZM118.011 44.459C118.612 44.459 119.142 44.3407 119.602 44.1042C120.063 43.8613 120.424 43.5353 120.686 43.1262C120.948 42.7171 121.079 42.2537 121.079 41.736V40.1731C120.951 40.2562 120.775 40.3329 120.552 40.4032C120.334 40.4671 120.088 40.5279 119.813 40.5854C119.538 40.6365 119.264 40.6845 118.989 40.7292C118.714 40.7676 118.465 40.8027 118.241 40.8347C117.761 40.905 117.343 41.0168 116.985 41.1703C116.627 41.3237 116.349 41.5314 116.151 41.7935C115.953 42.0492 115.853 42.3688 115.853 42.7523C115.853 43.3084 116.055 43.7335 116.457 44.0275C116.867 44.3151 117.384 44.459 118.011 44.459ZM137.748 40.7292V32.2725H141.832V46.9998H137.911V44.3247H137.757C137.425 45.1877 136.872 45.8812 136.099 46.4053C135.332 46.9295 134.395 47.1916 133.289 47.1916C132.305 47.1916 131.439 46.9678 130.691 46.5204C129.943 46.073 129.358 45.4369 128.936 44.6124C128.521 43.7878 128.31 42.8002 128.304 41.6497V32.2725H132.388V40.921C132.394 41.7903 132.628 42.4774 133.088 42.9824C133.548 43.4874 134.165 43.7399 134.938 43.7399C135.431 43.7399 135.891 43.628 136.319 43.4043C136.747 43.1742 137.093 42.8354 137.355 42.3879C137.623 41.9405 137.754 41.3876 137.748 40.7292ZM145.099 46.9998V32.2725H149.059V34.8421H149.213C149.481 33.9281 149.932 33.2377 150.565 32.7711C151.197 32.2981 151.926 32.0616 152.751 32.0616C152.955 32.0616 153.176 32.0744 153.412 32.0999C153.649 32.1255 153.857 32.1607 154.036 32.2054V35.8297C153.844 35.7722 153.579 35.721 153.24 35.6763C152.901 35.6315 152.591 35.6092 152.31 35.6092C151.709 35.6092 151.172 35.7402 150.699 36.0023C150.232 36.258 149.862 36.6159 149.587 37.0761C149.318 37.5364 149.184 38.0669 149.184 38.6678V46.9998H145.099ZM159.925 47.2779C158.985 47.2779 158.148 47.1149 157.413 46.7889C156.678 46.4565 156.096 45.9675 155.668 45.3219C155.246 44.6699 155.035 43.8581 155.035 42.8865C155.035 42.0683 155.185 41.3812 155.486 40.8251C155.786 40.269 156.195 39.8215 156.713 39.4828C157.231 39.144 157.819 38.8883 158.477 38.7157C159.142 38.5431 159.839 38.4217 160.567 38.3514C161.424 38.2619 162.114 38.1788 162.638 38.1021C163.163 38.019 163.543 37.8975 163.779 37.7377C164.016 37.5779 164.134 37.3414 164.134 37.0282V36.9707C164.134 36.3634 163.942 35.8936 163.559 35.5612C163.182 35.2288 162.645 35.0627 161.948 35.0627C161.213 35.0627 160.628 35.2257 160.193 35.5516C159.759 35.8712 159.471 36.2739 159.331 36.7597L155.553 36.4529C155.745 35.558 156.122 34.7846 156.684 34.1326C157.247 33.4742 157.972 32.9693 158.861 32.6177C159.756 32.2597 160.791 32.0808 161.967 32.0808C162.785 32.0808 163.568 32.1766 164.316 32.3684C165.071 32.5602 165.739 32.8574 166.32 33.2601C166.908 33.6628 167.372 34.1806 167.711 34.8134C168.049 35.4398 168.219 36.1909 168.219 37.0666V46.9998H164.345V44.9575H164.23C163.994 45.4178 163.677 45.8237 163.281 46.1752C162.885 46.5204 162.408 46.7921 161.852 46.9902C161.296 47.182 160.654 47.2779 159.925 47.2779ZM161.095 44.459C161.696 44.459 162.226 44.3407 162.686 44.1042C163.147 43.8613 163.508 43.5353 163.77 43.1262C164.032 42.7171 164.163 42.2537 164.163 41.736V40.1731C164.035 40.2562 163.859 40.3329 163.636 40.4032C163.418 40.4671 163.172 40.5279 162.897 40.5854C162.622 40.6365 162.348 40.6845 162.073 40.7292C161.798 40.7676 161.549 40.8027 161.325 40.8347C160.845 40.905 160.427 41.0168 160.069 41.1703C159.711 41.3237 159.433 41.5314 159.235 41.7935C159.037 42.0492 158.937 42.3688 158.937 42.7523C158.937 43.3084 159.139 43.7335 159.541 44.0275C159.951 44.3151 160.468 44.459 161.095 44.459ZM175.472 38.4856V46.9998H171.388V32.2725H175.28V34.8709H175.453C175.779 34.0144 176.325 33.3368 177.092 32.8382C177.859 32.3333 178.79 32.0808 179.883 32.0808C180.905 32.0808 181.797 32.3045 182.558 32.7519C183.318 33.1994 183.91 33.8386 184.331 34.6695C184.753 35.4941 184.964 36.4785 184.964 37.6227V46.9998H180.88V38.3514C180.886 37.4501 180.656 36.747 180.189 36.242C179.723 35.7306 179.08 35.4749 178.262 35.4749C177.712 35.4749 177.227 35.5932 176.805 35.8297C176.389 36.0662 176.063 36.4114 175.827 36.8652C175.597 37.3127 175.478 37.8528 175.472 38.4856ZM196.017 32.2725V35.3407H187.148V32.2725H196.017ZM189.161 28.7441H193.246V42.4742C193.246 42.8514 193.303 43.1454 193.419 43.3563C193.534 43.5609 193.693 43.7047 193.898 43.7878C194.109 43.8709 194.352 43.9124 194.627 43.9124C194.818 43.9124 195.01 43.8965 195.202 43.8645C195.394 43.8261 195.541 43.7974 195.643 43.7782L196.285 46.8176C196.081 46.8815 195.793 46.9551 195.422 47.0382C195.052 47.1276 194.601 47.182 194.071 47.2011C193.086 47.2395 192.223 47.1085 191.482 46.808C190.747 46.5076 190.175 46.041 189.765 45.4082C189.356 44.7754 189.155 43.9764 189.161 43.0112V28.7441Z" fill="#101A24"/>
<path d="M15.2857 38.0714C20.6113 38.0714 24.9285 33.7541 24.9285 28.4285C24.9285 23.1029 20.6113 18.7856 15.2857 18.7856C9.96008 18.7856 5.64282 23.1029 5.64282 28.4285C5.64282 33.7541 9.96008 38.0714 15.2857 38.0714Z" stroke="url(#paint0_linear_5_189)" stroke-width="3.57143"/>
<path d="M0.00261579 30.7144C0.000871931 30.8332 0 30.9522 0 31.0715C0 44.2869 10.7132 55.0001 23.9286 55.0001C37.1439 55.0001 47.8571 44.2869 47.8571 31.0715C47.8571 30.9522 47.8563 30.8332 47.8545 30.7144H0.00261579Z" fill="url(#paint1_linear_5_189)"/>
<path d="M35.6429 24.5001C38.0098 24.5001 39.9286 22.5814 39.9286 20.2144C39.9286 17.8475 38.0098 15.9287 35.6429 15.9287C33.276 15.9287 31.3572 17.8475 31.3572 20.2144C31.3572 22.5814 33.276 24.5001 35.6429 24.5001Z" stroke="#EAA427" stroke-width="2.14286"/>
<path d="M27.7857 10.2145C30.1526 10.2145 32.0714 8.29571 32.0714 5.92878C32.0714 3.56184 30.1526 1.64307 27.7857 1.64307C25.4188 1.64307 23.5 3.56184 23.5 5.92878C23.5 8.29571 25.4188 10.2145 27.7857 10.2145Z" stroke="#EA7727" stroke-width="2.14286"/>
</g>
<defs>
<linearGradient id="paint0_linear_5_189" x1="7.42859" y1="20.2142" x2="22.4286" y2="37.7142" gradientUnits="userSpaceOnUse">
<stop stop-color="#EA6D27"/>
<stop offset="1" stop-color="#EAA827"/>
</linearGradient>
<linearGradient id="paint1_linear_5_189" x1="6.42857" y1="30.7144" x2="35" y2="46.4286" gradientUnits="userSpaceOnUse">
<stop stop-color="#FF9400"/>
<stop offset="1" stop-color="#EA6D27"/>
</linearGradient>
<clipPath id="clip0_5_189">
<rect width="198" height="55" fill="white"/>
</clipPath>
</defs>
</svg>
